# xmcd
#
# Track frame offsets:
#	150
#	8783
#	18970
#	30684
#	43404
#	57128
#	69748
#	80093
#	91667
#
# Disc length: 1399 seconds
#
# Revision: 0
# Processed by: cddbd v1.5PL3 Copyright (c) Steve Scherf et al.
# Submitted via: dBpowerAMP V4.0
#
DISCID=6c057509
DTITLE=Dennis Smith - Hammin' It Up
DYEAR=1985
DGENRE=Country
TTITLE0=The Brass Pounder
TTITLE1=QRZ
TTITLE2=Silent Keys
TTITLE3=Antenna Farmer
TTITLE4=The Contester
TTITLE5=Antenna Anna
TTITLE6=Pile Up
TTITLE7=DXer's Lament
TTITLE8=If I Was An Astronaut
EXTD=Amateur Radio Songs
EXTT0=
EXTT1=
EXTT2=
EXTT3=
EXTT4=
EXTT5=
EXTT6=
EXTT7=
EXTT8=
PLAYORDER=
